{
  "accessors": [
    {
      "bufferView": 2,
      "componentType": 5126,
      "count": 65532,
      "max": [
        19.908964157104492,
        -1.056611180305481,
        9.212907791137695
      ],
      "min": [
        -12.064148902893066,
        -16.10919189453125,
        -11.444540977478027
      ],
      "type": "VEC3"
    },
    {
      "bufferView": 2,
      "byteOffset": 786384,
      "componentType": 5126,
      "count": 65532,
      "max": [
        0.9999704360961914,
        0.9999134540557861,
        0.9999855756759644
      ],
      "min": [
        -0.9999988079071045,
        -0.9999996423721313,
        -0.9999994039535522
      ],
      "type": "VEC3"
    },
    {
      "bufferView": 1,
      "componentType": 5126,
      "count": 65532,
      "max": [
        0.999701976776123,
        0.3497309982776642
      ],
      "min": [
        0.0025629999581724405,
        0.0006200000061653554
      ],
      "type": "VEC2"
    },
    {
      "bufferView": 0,
      "componentType": 5125,
      "count": 326040,
      "type": "SCALAR"
    },
    {
      "bufferView": 2,
      "byteOffset": 1572768,
      "componentType": 5126,
      "count": 65532,
      "max": [
        14.095019340515137,
        -1.5992341041564941,
        4.052845001220703
      ],
      "min": [
        -6.679350852966309,
        -16.1088809967041,
        -11.444540977478027
      ],
      "type": "VEC3"
    },
    {
      "bufferView": 2,
      "byteOffset": 2359152,
      "componentType": 5126,
      "count": 65532,
      "max": [
        0.9999704360961914,
        0.9999351501464844,
        0.9998416304588318
      ],
      "min": [
        -0.9999772906303406,
        -0.9999973773956299,
        -0.9999814033508301
      ],
      "type": "VEC3"
    },
    {
      "bufferView": 1,
      "byteOffset": 524256,
      "componentType": 5126,
      "count": 65532,
      "max": [
        0.998615026473999,
        0.35168498754501343
      ],
      "min": [
        0.0013429999817162752,
        0.0003819999983534217
      ],
      "type": "VEC2"
    },
    {
      "bufferView": 0,
      "byteOffset": 1304160,
      "componentType": 5125,
      "count": 291228,
      "type": "SCALAR"
    },
    {
      "bufferView": 2,
      "byteOffset": 3145536,
      "componentType": 5126,
      "count": 65532,
      "max": [
        19.908964157104492,
        -1.088759422302246,
        9.212907791137695
      ],
      "min": [
        -12.064148902893066,
        -11.589850425720215,
        -11.444540023803711
      ],
      "type": "VEC3"
    },
    {
      "bufferView": 2,
      "byteOffset": 3931920,
      "componentType": 5126,
      "count": 65532,
      "max": [
        0.999955415725708,
        0.9988632798194885,
        0.9999999403953552
      ],
      "min": [
        -0.9999980926513672,
        -1.0,
        -0.9999856352806091
      ],
      "type": "VEC3"
    },
    {
      "bufferView": 1,
      "byteOffset": 1048512,
      "componentType": 5126,
      "count": 65532,
      "max": [
        0.9997649788856506,
        0.35111498832702637
      ],
      "min": [
        0.00012199999764561653,
        0.00036700000055134296
      ],
      "type": "VEC2"
    },
    {
      "bufferView": 0,
      "byteOffset": 2469072,
      "componentType": 5125,
      "count": 302808,
      "type": "SCALAR"
    },
    {
      "bufferView": 2,
      "byteOffset": 4718304,
      "componentType": 5126,
      "count": 65532,
      "max": [
        19.908964157104492,
        -1.0641642808914185,
        9.110122680664063
      ],
      "min": [
        -9.847074508666992,
        -11.614574432373047,
        -11.444540977478027
      ],
      "type": "VEC3"
    },
    {
      "bufferView": 2,
      "byteOffset": 5504688,
      "componentType": 5126,
      "count": 65532,
      "max": [
        0.999733030796051,
        0.9974684119224548,
        0.9997823238372803
      ],
      "min": [
        -0.9999114871025085,
        -0.9999992847442627,
        -0.9996252059936523
      ],
      "type": "VEC3"
    },
    {
      "bufferView": 1,
      "byteOffset": 1572768,
      "componentType": 5126,
      "count": 65532,
      "max": [
        0.9997689723968506,
        0.3490700125694275
      ],
      "min": [
        0.00012199999764561653,
        0.0003910000086762011
      ],
      "type": "VEC2"
    },
    {
      "bufferView": 0,
      "byteOffset": 3680304,
      "componentType": 5125,
      "count": 302202,
      "type": "SCALAR"
    },
    {
      "bufferView": 2,
      "byteOffset": 6291072,
      "componentType": 5126,
      "count": 55549,
      "max": [
        19.908964157104492,
        -1.1367707252502441,
        6.963820934295654
      ],
      "min": [
        -11.973153114318848,
        -11.635234832763672,
        -11.444540977478027
      ],
      "type": "VEC3"
    },
    {
      "bufferView": 2,
      "byteOffset": 6957660,
      "componentType": 5126,
      "count": 55549,
      "max": [
        0.9999703764915466,
        0.9935802221298218,
        0.9996709227561951
      ],
      "min": [
        -0.9999303221702576,
        -1.0,
        -0.9999988675117493
      ],
      "type": "VEC3"
    },
    {
      "bufferView": 1,
      "byteOffset": 2097024,
      "componentType": 5126,
      "count": 55549,
      "max": [
        0.9996050000190735,
        0.3480679988861084
      ],
      "min": [
        0.00012199999764561653,
        0.0003980000037699938
      ],
      "type": "VEC2"
    },
    {
      "bufferView": 0,
      "byteOffset": 4889112,
      "componentType": 5125,
      "count": 207189,
      "type": "SCALAR"
    },
    {
      "bufferView": 2,
      "byteOffset": 7624248,
      "componentType": 5126,
      "count": 7177,
      "max": [
        19.908967971801758,
        -0.9346530437469482,
        9.212907791137695
      ],
      "min": [
        -12.064148902893066,
        -3.0622379779815674,
        -11.444540977478027
      ],
      "type": "VEC3"
    },
    {
      "bufferView": 2,
      "byteOffset": 7710372,
      "componentType": 5126,
      "count": 7177,
      "max": [
        1.0,
        1.0,
        1.0
      ],
      "min": [
        -1.0,
        -0.9999977946281433,
        -1.0
      ],
      "type": "VEC3"
    },
    {
      "bufferView": 1,
      "byteOffset": 2541416,
      "componentType": 5126,
      "count": 7177,
      "max": [
        0.0,
        0.0
      ],
      "min": [
        0.0,
        0.0
      ],
      "type": "VEC2"
    },
    {
      "bufferView": 0,
      "byteOffset": 5717868,
      "componentType": 5125,
      "count": 35985,
      "type": "SCALAR"
    }
  ],
  "asset": {
    "extras": {
      "author": "noe-3d.at (https://sketchfab.com/www.noe-3d.at)",
      "license": "CC-BY-NC-4.0 (http://creativecommons.org/licenses/by-nc/4.0/)",
      "source": "https://sketchfab.com/3d-models/heidenturm-87da4fd772bc43ce827a0807196b33f0",
      "title": "Heidenturm"
    },
    "generator": "Sketchfab-12.64.0",
    "version": "2.0"
  },
  "bufferViews": [
    {
      "buffer": 0,
      "byteLength": 5861808,
      "name": "floatBufferViews",
      "target": 34963
    },
    {
      "buffer": 0,
      "byteLength": 2598832,
      "byteOffset": 5861808,
      "byteStride": 8,
      "name": "floatBufferViews",
      "target": 34962
    },
    {
      "buffer": 0,
      "byteLength": 7796496,
      "byteOffset": 8460640,
      "byteStride": 12,
      "name": "floatBufferViews",
      "target": 34962
    }
  ],
  "buffers": [
    {
      "byteLength": 16257136,
      "uri": "scene.bin"
    }
  ],
  "images": [
    {
      "uri": "textures/Heidenturm_O_Material_u1_v1_baseColor.png"
    }
  ],
  "materials": [
    {
      "doubleSided": true,
      "name": "Heidenturm_O_Material_u1_v1",
      "pbrMetallicRoughness": {
        "baseColorTexture": {
          "index": 0
        },
        "metallicFactor": 0.0
      }
    }
  ],
  "meshes": [
    {
      "name": "Object_0",
      "primitives": [
        {
          "attributes": {
            "NORMAL": 1,
            "POSITION": 0,
            "TEXCOORD_0": 2
          },
          "indices": 3,
          "material": 0,
          "mode": 4
        }
      ]
    },
    {
      "name": "Object_1",
      "primitives": [
        {
          "attributes": {
            "NORMAL": 5,
            "POSITION": 4,
            "TEXCOORD_0": 6
          },
          "indices": 7,
          "material": 0,
          "mode": 4
        }
      ]
    },
    {
      "name": "Object_2",
      "primitives": [
        {
          "attributes": {
            "NORMAL": 9,
            "POSITION": 8,
            "TEXCOORD_0": 10
          },
          "indices": 11,
          "material": 0,
          "mode": 4
        }
      ]
    },
    {
      "name": "Object_3",
      "primitives": [
        {
          "attributes": {
            "NORMAL": 13,
            "POSITION": 12,
            "TEXCOORD_0": 14
          },
          "indices": 15,
          "material": 0,
          "mode": 4
        }
      ]
    },
    {
      "name": "Object_4",
      "primitives": [
        {
          "attributes": {
            "NORMAL": 17,
            "POSITION": 16,
            "TEXCOORD_0": 18
          },
          "indices": 19,
          "material": 0,
          "mode": 4
        }
      ]
    },
    {
      "name": "Object_5",
      "primitives": [
        {
          "attributes": {
            "NORMAL": 21,
            "POSITION": 20,
            "TEXCOORD_0": 22
          },
          "indices": 23,
          "material": 0,
          "mode": 4
        }
      ]
    }
  ],
  "nodes": [
    {
      "children": [
        1
      ],
      "matrix": [
        0.6421020299083295,
        1.7123046665509717e-18,
        -0.003949146987647145,
        0.0,
        -7.1860534019306185e-06,
        -0.6421130908014447,
        -0.0011683990044189835,
        0.0,
        -0.003949140409477581,
        0.0011684210562374103,
        -0.6421009582647059,
        0.0,
        -0.006883401423692703,
        -9.635633468627931,
        7.414782047271727,
        1.0
      ],
      "name": "Sketchfab_model"
    },
    {
      "children": [
        2,
        3,
        4,
        5,
        6,
        7
      ],
      "name": "Heidenturm_C.obj.cleaner.materialmerger.gles"
    },
    {
      "mesh": 0,
      "name": "Object_2"
    },
    {
      "mesh": 1,
      "name": "Object_3"
    },
    {
      "mesh": 2,
      "name": "Object_4"
    },
    {
      "mesh": 3,
      "name": "Object_5"
    },
    {
      "mesh": 4,
      "name": "Object_6"
    },
    {
      "mesh": 5,
      "name": "Object_7"
    }
  ],
  "samplers": [
    {
      "magFilter": 9729,
      "minFilter": 9987,
      "wrapS": 10497,
      "wrapT": 10497
    }
  ],
  "scene": 0,
  "scenes": [
    {
      "name": "Sketchfab_Scene",
      "nodes": [
        0
      ]
    }
  ],
  "textures": [
    {
      "sampler": 0,
      "source": 0
    }
  ]
}
