{
    "asset" : {
        "generator" : "Khronos glTF Blender I/O v3.2.43",
        "version" : "2.0"
    },
    "scene" : 0,
    "scenes" : [
        {
            "name" : "Scene",
            "nodes" : [
                2
            ]
        }
    ],
    "nodes" : [
        {
            "mesh" : 0,
            "name" : "Object_2"
        },
        {
            "children" : [
                0
            ],
            "name" : "FINALQuixelTurret.obj.cleaner.gles"
        },
        {
            "children" : [
                1
            ],
            "name" : "Sketchfab_model"
        }
    ],
    "materials" : [
        {
            "doubleSided" : true,
            "name" : "Model001_Material001.001",
            "normalTexture" : {
                "index" : 0
            },
            "occlusionTexture" : {
                "index" : 1,
                "strength" : 0.9700000286102295
            },
            "pbrMetallicRoughness" : {
                "baseColorTexture" : {
                    "index" : 2
                },
                "metallicRoughnessTexture" : {
                    "index" : 1
                }
            }
        }
    ],
    "meshes" : [
        {
            "name" : "Object_0.001",
            "primitives" : [
                {
                    "attributes" : {
                        "POSITION" : 0,
                        "NORMAL" : 1,
                        "TANGENT" : 2,
                        "TEXCOORD_0" : 3
                    },
                    "indices" : 4,
                    "material" : 0
                }
            ]
        }
    ],
    "textures" : [
        {
            "sampler" : 0,
            "source" : 0
        },
        {
            "sampler" : 0,
            "source" : 1
        },
        {
            "sampler" : 0,
            "source" : 2
        }
    ],
    "images" : [
        {
            "mimeType" : "image/png",
            "name" : "Model001_Material001.001_normal",
            "uri" : "Model001_Material001_001_normal.png"
        },
        {
            "mimeType" : "image/png",
            "name" : "Model001_Material001.001_metallicRoughness",
            "uri" : "Model001_Material001_001_metallicRoughness.png"
        },
        {
            "mimeType" : "image/png",
            "name" : "Model001_Material001.001_baseColor",
            "uri" : "Model001_Material001_001_baseColor.png"
        }
    ],
    "accessors" : [
        {
            "bufferView" : 0,
            "componentType" : 5126,
            "count" : 5879,
            "max" : [
                7.0644097328186035,
                34.06455993652344,
                12.499300003051758
            ],
            "min" : [
                -7.075099945068359,
                0.004498510621488094,
                -11.276049613952637
            ],
            "type" : "VEC3"
        },
        {
            "bufferView" : 1,
            "componentType" : 5126,
            "count" : 5879,
            "type" : "VEC3"
        },
        {
            "bufferView" : 2,
            "componentType" : 5126,
            "count" : 5879,
            "type" : "VEC4"
        },
        {
            "bufferView" : 3,
            "componentType" : 5126,
            "count" : 5879,
            "type" : "VEC2"
        },
        {
            "bufferView" : 4,
            "componentType" : 5123,
            "count" : 18417,
            "type" : "SCALAR"
        }
    ],
    "bufferViews" : [
        {
            "buffer" : 0,
            "byteLength" : 70548,
            "byteOffset" : 0
        },
        {
            "buffer" : 0,
            "byteLength" : 70548,
            "byteOffset" : 70548
        },
        {
            "buffer" : 0,
            "byteLength" : 94064,
            "byteOffset" : 141096
        },
        {
            "buffer" : 0,
            "byteLength" : 47032,
            "byteOffset" : 235160
        },
        {
            "buffer" : 0,
            "byteLength" : 36834,
            "byteOffset" : 282192
        }
    ],
    "samplers" : [
        {
            "magFilter" : 9729,
            "minFilter" : 9987
        }
    ],
    "buffers" : [
        {
            "byteLength" : 319028,
            "uri" : "turret.bin"
        }
    ]
}
